<svg width="132" height="132" fill="none" xmlns="http://www.w3.org/2000/svg"><path d="M117.36 48.463l2.04-23.194-21.66-5.155L86.4 0 66 9.177 45.6 0 34.26 20.052l-21.66 5.09L14.64 48.4 0 66l14.64 17.537-2.04 23.257 21.66 5.154L45.6 132l20.4-9.24 20.4 9.177 11.34-20.051 21.66-5.155-2.04-23.194L132 66l-14.64-17.537zM126.789 66l-13.558-16.242.144-1.646 1.738-19.752-20-4.759L84.71 5.147 66 13.563 47.286 5.145l-10.406 18.4-19.993 4.7L18.77 49.69 5.207 65.995l13.562 16.246-1.882 21.462 19.996 4.758 10.398 18.386 18.713-8.476 18.72 8.422 10.403-18.395 19.996-4.758-1.882-21.398L126.789 66z" fill="#F8F200" fill-rule="evenodd"/><path d="M54.234 90.013L48.4 84.18c-2.333-2.334-4.667-2.334-7 0l-5.41 5.409 2.334 2.334 5.41-5.41c.777-.778 1.548-.785 2.311-.021l.022.021-4.073 4.073c-1.952 1.952-1.973 3.882-.064 5.791 1.98 1.98 3.946 1.994 5.897.043l6.407-6.407zm-9.928 4.073c-.382-.382-.375-.77.021-1.166l4.073-4.073 1.167 1.166-4.073 4.073c-.396.396-.792.396-1.188 0zM66.007 78.24l-3.33 3.33-7.17.17-1.167 1.167 3.5 3.5-2.334 2.334-9.333-9.334 2.333-2.334 3.5 3.5 1.167-1.166.19-7.192 3.31-3.309-.106 9.44 9.44-.106zm-1.689-16.979l7 7-3.5 3.5c-.777.779-1.555.779-2.333 0l-5.834-5.833-2.333 2.334 5.834 5.833c2.333 2.334 4.666 2.334 7 0l4.667-4.667 2.333 2.334 2.44-2.44-4.667-4.667-1.273 1.273-7-7-2.334 2.333zm22.916-4.248l-2.333 2.333-.997-.997c-.396 2.008-1.16 3.578-2.291 4.71-2.334 2.333-4.667 2.333-7 0l-6.046-6.046 2.333-2.334 6.046 6.046c.764.764 1.541.764 2.333 0 1.358-1.754 1.782-3.663 1.273-5.728l-4.985-4.985 2.334-2.333 9.333 9.334zm-5.09-7.637c-1.98-1.98-1.995-3.946-.043-5.897l6.406-6.407 9.334 9.334-2.334 2.334-3.5-3.5-1.04 1.039.574 6.427-3.034 3.034-.573-6.428c-1.951 1.952-3.882 1.973-5.79.064zm6.363-7.637l-4.073 4.073c-.396.396-.382.806.043 1.23.353.354.728.333 1.124-.063l4.073-4.073-1.167-1.167z" fill="#F8F200" fill-rule="evenodd"/></svg>